<?xml version="1.0" encoding="UTF-8" standalone="no"?><!DOCTYPE svg PUBLIC "-//W3C//DTD SVG 1.1//EN" "http://www.w3.org/Graphics/SVG/1.1/DTD/svg11.dtd"><svg width="100%" height="100%" viewBox="0 0 1521 1521" version="1.1" xmlns="http://www.w3.org/2000/svg" xmlns:xlink="http://www.w3.org/1999/xlink" xml:space="preserve" xmlns:serif="http://www.serif.com/" style="fill-rule:evenodd;clip-rule:evenodd;stroke-linejoin:round;stroke-miterlimit:2;"><g><path d="M1481.84,1233.85l-1191.88,-1191.88c-51.981,-51.981 -136.255,-51.981 -188.155,-0l-62.816,62.718c-51.981,51.998 -51.981,136.272 -0,188.172l1191.88,1191.88c51.998,51.981 136.272,51.981 188.172,-0l62.719,-62.719c52.079,-51.9 52.079,-136.19 0.081,-188.172Z" style="fill:#fe425d;fill-rule:nonzero;"/><path d="M1230.87,41.972l-1191.88,1191.88c-51.981,51.982 -51.981,136.272 -0,188.172l62.718,62.719c51.998,51.981 136.272,51.981 188.172,-0l1191.96,-1191.8c51.998,-51.981 51.998,-136.255 0,-188.155l-62.718,-62.719c-51.982,-52.078 -136.256,-52.078 -188.254,-0.097Z" style="fill:#fe425d;fill-rule:nonzero;"/></g></svg>