<?xml version="1.0" encoding="utf-8"?>
<!-- Svg Vector Icons : http://www.onlinewebfonts.com/icon -->
<!DOCTYPE svg PUBLIC "-//W3C//DTD SVG 1.1//EN" "http://www.w3.org/Graphics/SVG/1.1/DTD/svg11.dtd">
<svg version="1.1" xmlns="http://www.w3.org/2000/svg" xmlns:xlink="http://www.w3.org/1999/xlink" x="0px" y="0px" viewBox="0 0 1000 1000" enable-background="new 0 0 1000 1000" xml:space="preserve">
<metadata> Svg Vector Icons : http://www.onlinewebfonts.com/icon </metadata>
<g><g transform="translate(0.000000,512.000000) scale(0.100000,-0.100000)"><path d="M3667,5000.2c-893.8-93.8-1764.6-509.1-2401.9-1148.3C-285.2,2299.7-289-205.5,1257.4-1761.5c748.3-754.1,1772.2-1178.9,2838.3-1178.9c867,0,1795.2,329.2,2459.3,868.9l112.9,91.9l1389.5-1387.5c1508.1-1508.1,1425.8-1435.4,1603.8-1401c93.8,17.2,208.6,132.1,225.8,225.8c34.4,178,107.2,95.7-1401,1603.8L7098.5-1549.1l91.9,112.9c539.7,664.1,868.9,1592.3,868.9,2459.3c0,920.6-321.5,1827.8-901.4,2535.9C6317.7,4588.7,4985.6,5138,3667,5000.2z M4432.5,4389.7c759.8-86.1,1433.5-400,1977-924.4c300.5-292.8,497.6-558.9,681.4-926.3c532.1-1056.4,457.4-2333-193.3-3335.9C6346.4-1644.8,5443-2196,4419.1-2307c-1223-134-2453.6,449.8-3150.2,1492.8C723.5,3.1,568.4,1059.5,855.5,2010.7c317.7,1052.6,1129.2,1885.2,2170.3,2225.8C3489,4389.7,3969.4,4441.4,4432.5,4389.7z"/><path d="M3954.1,2850.9c-70.8-32.5-134-99.5-160.8-170.3c-13.4-34.5-21.1-287.1-21.1-692.8v-639.2l-667.9-5.8c-641.1-5.7-671.8-7.6-721.5-45.9c-101.4-74.6-132.1-135.9-132.1-256.5c0-120.6,30.6-181.8,132.1-256.5c49.8-38.3,80.4-40.2,719.6-45.9l667.9-5.7l5.7-667.9c5.7-639.2,7.7-669.9,45.9-719.6c74.6-101.5,135.9-132.1,256.5-132.1s181.8,30.6,256.5,132.1c38.3,49.7,40.2,80.4,45.9,719.6l5.7,667.9l667.9,5.7c639.2,5.7,669.9,7.7,719.6,45.9c101.4,74.6,132.1,135.9,132.1,256.5c0,120.6-30.6,181.8-132.1,256.5c-49.8,38.3-80.4,40.2-719.6,45.9l-667.9,5.8l-5.7,667.9c-5.7,639.2-7.7,669.9-45.9,719.6c-21.1,28.7-61.2,70.8-88,89.9C4181.8,2873.9,4030.6,2887.3,3954.1,2850.9z"/></g></g>
</svg>