<?xml version="1.0" encoding="UTF-8" standalone="no"?><!DOCTYPE svg PUBLIC "-//W3C//DTD SVG 1.1//EN" "http://www.w3.org/Graphics/SVG/1.1/DTD/svg11.dtd"><svg width="100%" height="100%" viewBox="0 0 2527 1639" version="1.1" xmlns="http://www.w3.org/2000/svg" xmlns:xlink="http://www.w3.org/1999/xlink" xml:space="preserve" xmlns:serif="http://www.serif.com/" style="fill-rule:evenodd;clip-rule:evenodd;stroke-linejoin:round;stroke-miterlimit:2;"><g id="Cardboard-Logo" serif:id="Cardboard Logo"><text x="-24.193px" y="1632.34px" style="font-family:'Arial-BoldMT', 'Arial', sans-serif;font-weight:700;font-size:510.802px;fill:#fff;">Cardboard</text><g><g><path d="M834.045,784.498c92.021,117.782 233.159,186.619 382.626,186.619c267.987,0 485.558,-217.571 485.558,-485.558c0,-267.987 -217.571,-485.559 -485.558,-485.559c-155.43,0 -301.466,74.409 -392.825,200.154l47.713,34.666c80.263,-110.472 208.561,-175.843 345.112,-175.843c235.436,0 426.581,191.145 426.581,426.582c0,235.436 -191.145,426.581 -426.581,426.581c-131.312,0 -255.307,-60.476 -336.151,-163.952l-46.475,36.31Z" style="fill:#fff;fill-opacity:0.5;"/><path d="M1458.08,676.626c-58.815,75.28 -149.023,119.277 -244.554,119.277c-171.284,0 -310.345,-139.061 -310.345,-310.344c0,-171.284 139.061,-310.345 310.345,-310.345c99.342,0 192.681,47.559 251.073,127.929l-37.485,27.235c-49.675,-68.371 -129.078,-108.829 -213.588,-108.829c-145.711,0 -264.01,118.299 -264.01,264.01c0,145.71 118.299,264.009 264.01,264.009c81.268,0 158.008,-37.429 208.042,-101.469l36.512,28.527Z" style="fill:#fff;"/></g></g></g></svg>