<?xml version="1.0" encoding="UTF-8" standalone="no"?>
<!DOCTYPE svg PUBLIC "-//W3C//DTD SVG 1.1//EN" "http://www.w3.org/Graphics/SVG/1.1/DTD/svg11.dtd">
<svg width="100%" height="100%" viewBox="0 0 706 781" version="1.1" xmlns="http://www.w3.org/2000/svg" xmlns:xlink="http://www.w3.org/1999/xlink" xml:space="preserve" xmlns:serif="http://www.serif.com/" style="fill-rule:evenodd;clip-rule:evenodd;stroke-linejoin:round;stroke-miterlimit:2;">
    <g transform="matrix(1,0,0,1,-147.126,-109.872)">
        <g>
            <path d="M155.321,740.187C229.257,834.819 342.655,890.128 462.746,890.128C678.063,890.128 852.874,715.317 852.874,500C852.874,284.683 678.063,109.872 462.746,109.872C337.864,109.872 220.53,169.657 147.126,270.689L185.462,298.541C249.95,209.782 353.033,157.258 462.746,157.258C651.91,157.258 805.488,310.836 805.488,500C805.488,689.164 651.91,842.742 462.746,842.742C357.242,842.742 257.617,794.151 192.662,711.013L155.321,740.187Z" style="fill:white;fill-opacity:0.4;"/>
            <path d="M680.09,669.807C627.819,736.711 547.648,775.813 462.746,775.813C310.521,775.813 186.933,652.225 186.933,500C186.933,347.775 310.521,224.187 462.746,224.187C551.035,224.187 633.988,266.454 685.884,337.881L652.569,362.086C608.422,301.323 537.853,265.366 462.746,265.366C333.248,265.366 228.112,370.502 228.112,500C228.112,629.498 333.248,734.634 462.746,734.634C534.972,734.634 603.173,701.37 647.64,644.455L680.09,669.807Z" style="fill:white;"/>
        </g>
    </g>
</svg>
